# xmcd
#
# Track frame offsets:
#	150
#	22630
#	43453
#	66404
#	89516
#	111638
#	134118
#	155784
#	177366
#	199876
#	215928
#	234858
#
# Disc length: 3429 seconds
#
# Revision: 1
# Processed by: cddbd v1.5.1PL0 Copyright (c) Steve Scherf et al.
# Submitted via: CDex 1.50Beta5
#
DISCID=bf0d630c
DTITLE=さまざまなアーティスト - オルゴール Disc 4
DYEAR=1900
DGENRE=Pop
TTITLE0=槇原 敬之/世界に一つだけの花
TTITLE1=長渕 剛/しあわせになろうよ
TTITLE2=中島 みゆき/銀の龍の背に乗って
TTITLE3=崎谷 健太郎/真昼の別れ
TTITLE4=大滝 詠一/恋する二人
TTITLE5=森山 直太郎/さくら
TTITLE6=TUBE/青いメロディー
TTITLE7=桜庭 裕一郎/お前やないとあかんねん
TTITLE8=藤井 フミヤ/Boy's Heart
TTITLE9=竹内 まりや/元気をだして
TTITLE10=ミヤザキマモル/琉球ムーン
TTITLE11=RUI/月のしづく
EXTD=
EXTT0=
EXTT1=
EXTT2=
EXTT3=
EXTT4=
EXTT5=
EXTT6=
EXTT7=
EXTT8=
EXTT9=
EXTT10=
EXTT11=
PLAYORDER=
